<svg width="37" height="37" version="1.1" viewBox="0 0 37 37" xmlns="http://www.w3.org/2000/svg">
 <defs>
  <filter id="filter4446" x="-1.372e-6" y="-9.409e-7" width="1" height="1" color-interpolation-filters="sRGB">
   <feGaussianBlur stdDeviation="3.6478099e-05"/>
  </filter>
  <filter id="filter17290" x="-.01163" y="-.04835" width="1.023" height="1.097" color-interpolation-filters="sRGB">
   <feGaussianBlur stdDeviation="0.27620711"/>
  </filter>
  <filter id="filter2979-8" x="-.06866" y="-.07298" width="1.137" height="1.146" color-interpolation-filters="sRGB">
   <feGaussianBlur stdDeviation="1.6330562"/>
  </filter>
  <filter id="filter2553-68" x="-.01862" y="-.0198" width="1.037" height="1.04" color-interpolation-filters="sRGB">
   <feGaussianBlur stdDeviation="0.4429906"/>
  </filter>
  <filter id="filter17678" x="-.04282" y="-.178" width="1.086" height="1.356" color-interpolation-filters="sRGB">
   <feGaussianBlur stdDeviation="1.0168307"/>
  </filter>
 </defs>
 <text x="2.8827183" y="21.844383" fill="#000000" font-family="sans-serif" font-size="40px" letter-spacing="0px" word-spacing="0px" style="line-height:1.25" xml:space="preserve"><tspan x="2.8827183" y="57.235004"/></text>
 <g transform="matrix(.5956 0 0 .5956 1.329 -1.959)">
  <g transform="translate(.4592 .4592)">
   <g transform="translate(62.41 -7.355)">
    <g transform="translate(7.528 -2.557)">
     <g transform="matrix(1.012 0 0 .694 -30.91 -7.642)">
      <rect x="-57.39" y="16.07" width="90.61" height="128.5" ry="0" opacity="0" stroke-width=".06811" style="paint-order:markers fill stroke"/>
      <g transform="matrix(.962 0 0 .962 -.1207 2.974)" filter="url(#filter4446)">
       <g transform="translate(-.6466)">
        <path d="m-25.96 27.44h31.57c8.928 0 16.12 7.188 16.12 16.12v60.81c0 8.928-7.188 16.12-16.12 16.12h-31.57c-8.928 0-16.12-7.188-16.12-16.12v-60.81c0-8.928 7.188-16.12 16.12-16.12z" fill="#191919"/>
        <path d="m-25.96 27.44c49.58 0.1341 47.4-2.304 47.69 76.93 0 8.928-7.188 16.12-16.12 16.12h-31.57c-8.928 0-16.12-7.188-16.12-16.12v-60.81c0-8.928 7.188-16.12 16.12-16.12z" fill="#161616"/>
        <path d="m-25.96 27.44c47.33 0.1341 47.52-0.05586 47.69 76.93 0 8.928-7.188 16.12-16.12 16.12h-31.57c-8.928 0-16.12-7.188-16.12-16.12v-60.81c0-8.928 7.188-16.12 16.12-16.12z" fill="#222"/>
        <g transform="translate(218.7 -42.85)" stroke-width=".1077">
         <g transform="matrix(.9801 0 0 .9801 -124.2 -47.85)">
          <path d="m-78.15 137.4-0.02673 1.587c-2.506 0.104-4.013 2.055-4.976 5.241-2.23 7.517-9.212 31.21-13.85 46.64h-1.213l-7.304-25.11c-2.898 8.271-6.091 16.91-8.847 25.11-0.0268 0.039-1.338 0-1.338-0.0391-4.183-14.27-8.57-28.43-12.76-42.74-1.017-3.472-4.406-9.104-6.742-9.065 0-0.4032-0.0268-1.3-0.0268-1.847h14.44v1.808c-1.712 0.1431-4.709 1.73-3.862 4.448 1.953 6.464 9.239 31.25 11.2 37.53 1.338-3.863 5.155-14.2 6.715-18.57-1.24-3.68-5.226-17.41-6.492-20.81-0.8651-2.315-3.219-2.523-4.976-2.562v-1.808l12.71 0.039v1.704c-1.73 0.078-3.398 1.014-2.622 3.394 1.686 5.202 2.729 8.857 4.29 13.62 0.4994-1.405 3.095-9.026 4.29-13.11 0.7937-2.679-0.3478-3.72-3.442-3.824 0.0268-0.4682 0-1.34 0.0268-1.769 3.96-0.039 9.908-0.039 10.98-0.078v1.769c-2.007 0.1041-4.085 1.665-5.181 4.123l-5.28 15.97c0.5708 2.094 5.645 18.57 6.171 20.38l10.92-36.75c-0.767-3.004-3.246-3.654-4.209-3.68v-1.808l11.4 0.1431z" fill="#12e6ee" fill-opacity=".8" filter="url(#filter2979-8)" style="mix-blend-mode:normal"/>
          <path d="m-78.15 137.4-0.02673 1.587c-2.506 0.104-4.013 2.055-4.976 5.241-2.23 7.517-9.212 31.21-13.85 46.64h-1.213l-7.304-25.11c-2.898 8.271-6.091 16.91-8.847 25.11-0.0268 0.039-1.338 0-1.338-0.0391-4.183-14.27-8.57-28.43-12.76-42.74-1.017-3.472-4.406-9.104-6.742-9.065 0-0.4032-0.0268-1.3-0.0268-1.847h14.44v1.808c-1.712 0.1431-4.709 1.73-3.862 4.448 1.953 6.464 9.239 31.25 11.2 37.53 1.338-3.863 5.155-14.2 6.715-18.57-1.24-3.68-5.226-17.41-6.492-20.81-0.8651-2.315-3.219-2.523-4.976-2.562v-1.808l12.71 0.039v1.704c-1.73 0.078-3.398 1.014-2.622 3.394 1.686 5.202 2.729 8.857 4.29 13.62 0.4994-1.405 3.095-9.026 4.29-13.11 0.7937-2.679-0.3478-3.72-3.442-3.824 0.0268-0.4682 0-1.34 0.0268-1.769 3.96-0.039 9.908-0.039 10.98-0.078v1.769c-2.007 0.1041-4.085 1.665-5.181 4.123l-5.279 15.97c0.5708 2.094 5.645 18.57 6.171 20.38l10.92-36.75c-0.767-3.004-3.246-3.654-4.209-3.68v-1.808l11.4 0.1431z" fill="#fff" filter="url(#filter2553-68)" opacity=".65"/>
          <path d="m-78.15 137.4-0.02672 1.587c-2.506 0.104-4.013 2.055-4.976 5.241-2.23 7.517-9.212 31.21-13.85 46.64h-1.213l-7.304-25.11c-2.898 8.271-6.091 16.91-8.847 25.11-0.0268 0.039-1.338 0-1.338-0.0391-4.183-14.27-8.57-28.43-12.76-42.74-1.017-3.472-4.406-9.104-6.742-9.065 0-0.4032-0.0268-1.3-0.0268-1.847h14.44v1.808c-1.712 0.1431-4.709 1.73-3.862 4.448 1.953 6.464 9.239 31.25 11.2 37.53 1.338-3.863 5.155-14.2 6.715-18.57-1.24-3.68-5.226-17.41-6.492-20.81-0.8651-2.315-3.219-2.523-4.976-2.562v-1.808l12.71 0.039v1.704c-1.73 0.078-3.398 1.014-2.622 3.394 1.686 5.202 2.729 8.857 4.29 13.62 0.4994-1.405 3.095-9.026 4.29-13.11 0.7937-2.679-0.3478-3.72-3.442-3.824 0.0268-0.4682 0-1.34 0.0268-1.769 3.96-0.039 9.908-0.039 10.98-0.078v1.769c-2.007 0.1041-4.085 1.665-5.181 4.123l-5.279 15.97c0.5708 2.094 5.645 18.57 6.171 20.38l10.92-36.75c-0.767-3.004-3.246-3.654-4.209-3.68v-1.808l11.4 0.1431z" fill="#cce7f8"/>
         </g>
        </g>
        <g transform="translate(-57.74 -54.5)" stroke-width=".5169">
         <g transform="matrix(.8281 0 0 1.208 57.16 53.92)" fill="#12e6ee" fill-opacity=".8" filter="url(#filter17678)" style="mix-blend-mode:normal" aria-label="DAILY">
          <g fill="#12e6ee" fill-opacity=".8">
           <path d="m-35.42 94.52q0.02019 0.5553 0.08077 0.8481 0.07067 0.2827 0.3029 0.5553 0.2423 0.2726 0.7269 0.3635 0.4846 0.09087 1.313 0.09087 1.161 0 2.11-0.2726 0.949-0.2827 1.757-0.8885 0.8077-0.6159 1.262-1.706 0.4543-1.1 0.4543-2.615 0-0.9894-0.2019-1.959-0.1918-0.9692-0.6563-1.898-0.4644-0.939-1.161-1.636-0.6865-0.7067-1.747-1.141-1.05-0.4341-2.332-0.4341-0.4745 0-0.7976 0.03029-0.3231 0.03029-0.5351 0.1817-0.2019 0.1413-0.313 0.2221-0.1111 0.08077-0.1716 0.3837-0.05048 0.3029-0.06058 0.4442-0.0101 0.1413-0.03029 0.5957-0.08077 3.473-0.08077 4.473 0 2.11 0.08077 4.362zm-0.9087-11.09q0.313 0 1.565-0.05048 1.252-0.05048 2.029-0.05048 2.958 0 5.068 2.09 2.11 2.08 2.11 4.977 0 1.464-0.4341 2.625-0.4341 1.161-1.121 1.868-0.6764 0.6966-1.595 1.161-0.9188 0.4644-1.827 0.6462-0.8986 0.1716-1.827 0.1716-1.242 0-2.484-0.05048-1.232-0.05048-1.444-0.05048-0.5755 0-1.413 0.05048t-1.272 0.05048q-0.08077-0.101-0.08077-0.2423 0-0.1514 0.08077-0.2322 1.141-0.04039 1.444-0.3332 0.313-0.3029 0.3332-1.545 0.08077-3.433 0.08077-4.382 0-1.01-0.08077-4.452-0.02019-1.242-0.3332-1.535-0.3029-0.3029-1.444-0.3433-0.08077-0.101-0.08077-0.2423 0-0.1514 0.08077-0.2322 0.4543 0 1.272 0.05048 0.8178 0.05048 1.373 0.05048z"/>
           <path d="m-20.02 91.03h3.695l-1.989-5.735h-0.06058l-2.171 5.351q-0.07067 0.1615 0.06058 0.2726 0.1413 0.1111 0.4644 0.1111zm-2.342 4.321q-0.06058 0.1615-0.07067 0.2928 0 0.1313 0.04038 0.2322 0.05048 0.09087 0.1212 0.1716 0.08077 0.08077 0.2019 0.1313 0.1313 0.05048 0.2524 0.09087t0.2827 0.07067q0.1716 0.02019 0.3029 0.04039 0.1313 0.0101 0.2928 0.02019 0.09087 0.09087 0.09087 0.2423 0.0101 0.1413-0.09087 0.2322-0.2928-0.0101-1.03-0.06058-0.7269-0.04039-1.201-0.04039-0.4442 0-1.09 0.04039-0.6361 0.05048-0.9591 0.06058-0.09087-0.09087-0.09087-0.2322 0-0.1514 0.09087-0.2423 0.7572-0.05048 1.222-0.3534 0.4745-0.3029 0.8481-1.171l4.796-11.3q0.3837 0 1.08-0.4139l4.321 12.03q0.1313 0.3837 0.313 0.626 0.1918 0.2322 0.4644 0.3534 0.2827 0.1111 0.4846 0.1514 0.212 0.04039 0.5957 0.07067 0.09087 0.09087 0.09087 0.2423 0 0.1413-0.09087 0.2322-0.2928-0.0101-0.7673-0.04039-0.4644-0.02019-0.9188-0.04039-0.4442-0.02019-0.8178-0.02019-0.4644 0-1.464 0.05048-0.9894 0.05048-1.242 0.05048-0.09087-0.09087-0.09087-0.2322 0-0.1514 0.09087-0.2423 0.07067 0 0.2019-0.0101 0.2221-0.0101 0.3231-0.02019 0.1111-0.0101 0.2928-0.03029 0.1817-0.03029 0.2726-0.05048 0.09087-0.03029 0.212-0.07067 0.1212-0.05048 0.1615-0.1111 0.05048-0.06058 0.09087-0.1413 0.05048-0.09087 0.04038-0.212-0.0101-0.1212-0.06058-0.2625l-1.313-3.806h-4.311q-0.3433 0-0.4947 0.1111-0.1413 0.1111-0.2322 0.3433z"/>
           <path d="m-7.008 94.52q0.02019 0.6664 0.08077 1.02 0.07067 0.3433 0.3029 0.5452 0.2322 0.1918 0.5149 0.2423 0.2827 0.05048 0.8986 0.07067 0.09087 0.09087 0.09087 0.2423 0.0101 0.1413-0.09087 0.2322-0.4442-0.0101-1.272-0.06058-0.8279-0.04039-1.393-0.04039-0.5755 0-1.424 0.04039-0.838 0.05048-1.262 0.06058-0.09087-0.09087-0.09087-0.2322 0-0.1514 0.09087-0.2423 0.6159-0.03029 0.8986-0.07067 0.2827-0.05048 0.5149-0.2423 0.2322-0.2019 0.3029-0.5553 0.07067-0.3534 0.08077-1.01 0.06058-2.575 0.06058-4.382 0-1.868-0.06058-4.452-0.0101-0.4442-0.04038-0.7269-0.03029-0.2928-0.1313-0.5048-0.09087-0.212-0.2019-0.3231-0.101-0.1212-0.3332-0.1918-0.2322-0.07067-0.4543-0.09087-0.2221-0.02019-0.6361-0.04039-0.09087-0.09087-0.09087-0.2322 0-0.1514 0.09087-0.2423 0.4442 0.0101 1.272 0.06058 0.8279 0.04039 1.393 0.04039 0.5755 0 1.413-0.04039 0.8481-0.05048 1.272-0.06058 0.09087 0.09087 0.09087 0.2423 0.0101 0.1413-0.09087 0.2322-0.6159 0.03029-0.8986 0.08077-0.2726 0.04039-0.5048 0.2423-0.2322 0.2019-0.3029 0.5452-0.07067 0.3433-0.09087 1.01-0.06058 2.08-0.06058 4.473 0 1.807 0.06058 4.362z"/>
           <path d="m-0.2539 94.52q0.03029 1.656 1.181 1.656h1.504q1.514 0 2.262-0.7067 0.7572-0.7168 1.111-2.009 0.2019-0.03029 0.4745 0.1111-0.1716 1.464-0.5351 3.301-1.908-0.101-2.463-0.101h-4.402q-0.313 0-1.252 0.04039-0.9289 0.05048-1.434 0.06058-0.09087-0.09087-0.09087-0.2322 0-0.1514 0.09087-0.2423 0.6159-0.03029 0.8986-0.07067 0.2827-0.05048 0.5149-0.2423 0.2322-0.2019 0.3029-0.5553 0.07067-0.3534 0.08077-1.01 0.06058-2.575 0.06058-4.382 0-1.868-0.06058-4.452-0.0101-0.4442-0.04038-0.7269-0.03029-0.2928-0.1313-0.5048-0.09087-0.212-0.2019-0.3231-0.101-0.1212-0.3332-0.1918-0.2322-0.07067-0.4543-0.09087-0.2221-0.02019-0.6361-0.04039-0.09087-0.09087-0.09087-0.2322 0-0.1514 0.09087-0.2423 0.4442 0.0101 1.272 0.06058 0.8279 0.04039 1.393 0.04039 0.5755 0 1.413-0.04039 0.8481-0.05048 1.272-0.06058 0.09087 0.09087 0.09087 0.2423 0.0101 0.1413-0.09087 0.2322-0.6159 0.03029-0.8986 0.08077-0.2726 0.04039-0.5048 0.2423-0.2322 0.2019-0.3029 0.5452-0.07067 0.3433-0.09087 1.01-0.06058 2.08-0.06058 4.473 0 0.424 0.06058 4.362z"/>
           <path d="m12.78 94.52q0.02019 1.222 0.3736 1.535 0.3534 0.3029 1.636 0.3433 0.08077 0.08077 0.08077 0.2322 0 0.1413-0.08077 0.2423-0.4139 0-1.333-0.05048-0.9188-0.05048-1.545-0.05048-0.6159 0-1.565 0.05048-0.9389 0.05048-1.333 0.05048-0.2322-0.2322 0-0.4745 1.282-0.04039 1.636-0.3433 0.3534-0.313 0.3736-1.535l0.06058-3.1q0-0.1918-0.0101-0.3332-0.0101-0.1413-0.03029-0.2322-0.02019-0.09087-0.07067-0.1918-0.05048-0.101-0.09087-0.1615-0.04039-0.07067-0.1313-0.212-0.09087-0.1413-0.1615-0.2625l-2.716-4.564q-0.5755-0.9793-1.09-1.292-0.5048-0.313-1.262-0.3635-0.2524-0.2524-0.02019-0.4745 0.1413 0 0.9894 0.05048 0.8582 0.05048 1.333 0.05048 0.4543 0 1.282-0.05048 0.8279-0.05048 1.151-0.05048 0.2322 0.2524 0 0.4745-0.9087 0.04039-1.1 0.2221-0.1817 0.1716 0.1514 0.8279l2.615 4.594q0.2726 0.4947 0.5149 0.04039l2.453-4.634q0.1615-0.313 0.1716-0.5149 0.02019-0.2019-0.1514-0.3029-0.1615-0.1111-0.3837-0.1615-0.212-0.05048-0.6058-0.07067-0.2322-0.2322 0-0.4543 0.4139 0 1.07 0.04039 0.6664 0.04039 0.9087 0.04039 0.2726 0 0.9793-0.04039 0.7168-0.04039 0.949-0.04039 0.2322 0.2322 0 0.4543-0.8178 0.08077-1.313 0.3231t-0.8986 0.9591l-2.635 4.776q-0.2625 0.4745-0.2625 1.373z"/>
          </g>
         </g>
         <g transform="matrix(.8281 0 0 1.208 57.16 53.92)" fill="#fff" filter="url(#filter17290)" opacity=".65" style="mix-blend-mode:normal" aria-label="DAILY">
          <g fill="#fff">
           <path d="m-35.42 94.52q0.02019 0.5553 0.08077 0.8481 0.07067 0.2827 0.3029 0.5553 0.2423 0.2726 0.7269 0.3635 0.4846 0.09087 1.313 0.09087 1.161 0 2.11-0.2726 0.949-0.2827 1.757-0.8885 0.8077-0.6159 1.262-1.706 0.4543-1.1 0.4543-2.615 0-0.9894-0.2019-1.959-0.1918-0.9692-0.6563-1.898-0.4644-0.939-1.161-1.636-0.6865-0.7067-1.747-1.141-1.05-0.4341-2.332-0.4341-0.4745 0-0.7976 0.03029-0.3231 0.03029-0.5351 0.1817-0.2019 0.1413-0.313 0.2221-0.1111 0.08077-0.1716 0.3837-0.05048 0.3029-0.06058 0.4442-0.0101 0.1413-0.03029 0.5957-0.08077 3.473-0.08077 4.473 0 2.11 0.08077 4.362zm-0.9087-11.09q0.313 0 1.565-0.05048 1.252-0.05048 2.029-0.05048 2.958 0 5.068 2.09 2.11 2.08 2.11 4.977 0 1.464-0.4341 2.625-0.4341 1.161-1.121 1.868-0.6764 0.6966-1.595 1.161-0.9188 0.4644-1.827 0.6462-0.8986 0.1716-1.827 0.1716-1.242 0-2.484-0.05048-1.232-0.05048-1.444-0.05048-0.5755 0-1.413 0.05048t-1.272 0.05048q-0.08077-0.101-0.08077-0.2423 0-0.1514 0.08077-0.2322 1.141-0.04039 1.444-0.3332 0.313-0.3029 0.3332-1.545 0.08077-3.433 0.08077-4.382 0-1.01-0.08077-4.452-0.02019-1.242-0.3332-1.535-0.3029-0.3029-1.444-0.3433-0.08077-0.101-0.08077-0.2423 0-0.1514 0.08077-0.2322 0.4543 0 1.272 0.05048 0.8178 0.05048 1.373 0.05048z"/>
           <path d="m-20.02 91.03h3.695l-1.989-5.735h-0.06058l-2.171 5.351q-0.07067 0.1615 0.06058 0.2726 0.1413 0.1111 0.4644 0.1111zm-2.342 4.321q-0.06058 0.1615-0.07067 0.2928 0 0.1313 0.04038 0.2322 0.05048 0.09087 0.1212 0.1716 0.08077 0.08077 0.2019 0.1313 0.1313 0.05048 0.2524 0.09087t0.2827 0.07067q0.1716 0.02019 0.3029 0.04039 0.1313 0.0101 0.2928 0.02019 0.09087 0.09087 0.09087 0.2423 0.0101 0.1413-0.09087 0.2322-0.2928-0.0101-1.03-0.06058-0.7269-0.04039-1.201-0.04039-0.4442 0-1.09 0.04039-0.6361 0.05048-0.9591 0.06058-0.09087-0.09087-0.09087-0.2322 0-0.1514 0.09087-0.2423 0.7572-0.05048 1.222-0.3534 0.4745-0.3029 0.8481-1.171l4.796-11.3q0.3837 0 1.08-0.4139l4.321 12.03q0.1313 0.3837 0.313 0.626 0.1918 0.2322 0.4644 0.3534 0.2827 0.1111 0.4846 0.1514 0.212 0.04039 0.5957 0.07067 0.09087 0.09087 0.09087 0.2423 0 0.1413-0.09087 0.2322-0.2928-0.0101-0.7673-0.04039-0.4644-0.02019-0.9188-0.04039-0.4442-0.02019-0.8178-0.02019-0.4644 0-1.464 0.05048-0.9894 0.05048-1.242 0.05048-0.09087-0.09087-0.09087-0.2322 0-0.1514 0.09087-0.2423 0.07067 0 0.2019-0.0101 0.2221-0.0101 0.3231-0.02019 0.1111-0.0101 0.2928-0.03029 0.1817-0.03029 0.2726-0.05048 0.09087-0.03029 0.212-0.07067 0.1212-0.05048 0.1615-0.1111 0.05048-0.06058 0.09087-0.1413 0.05048-0.09087 0.04038-0.212-0.0101-0.1212-0.06058-0.2625l-1.313-3.806h-4.311q-0.3433 0-0.4947 0.1111-0.1413 0.1111-0.2322 0.3433z"/>
           <path d="m-7.008 94.52q0.02019 0.6664 0.08077 1.02 0.07067 0.3433 0.3029 0.5452 0.2322 0.1918 0.5149 0.2423 0.2827 0.05048 0.8986 0.07067 0.09087 0.09087 0.09087 0.2423 0.0101 0.1413-0.09087 0.2322-0.4442-0.0101-1.272-0.06058-0.8279-0.04039-1.393-0.04039-0.5755 0-1.424 0.04039-0.838 0.05048-1.262 0.06058-0.09087-0.09087-0.09087-0.2322 0-0.1514 0.09087-0.2423 0.6159-0.03029 0.8986-0.07067 0.2827-0.05048 0.5149-0.2423 0.2322-0.2019 0.3029-0.5553 0.07067-0.3534 0.08077-1.01 0.06058-2.575 0.06058-4.382 0-1.868-0.06058-4.452-0.0101-0.4442-0.04038-0.7269-0.03029-0.2928-0.1313-0.5048-0.09087-0.212-0.2019-0.3231-0.101-0.1212-0.3332-0.1918-0.2322-0.07067-0.4543-0.09087-0.2221-0.02019-0.6361-0.04039-0.09087-0.09087-0.09087-0.2322 0-0.1514 0.09087-0.2423 0.4442 0.0101 1.272 0.06058 0.8279 0.04039 1.393 0.04039 0.5755 0 1.413-0.04039 0.8481-0.05048 1.272-0.06058 0.09087 0.09087 0.09087 0.2423 0.0101 0.1413-0.09087 0.2322-0.6159 0.03029-0.8986 0.08077-0.2726 0.04039-0.5048 0.2423-0.2322 0.2019-0.3029 0.5452-0.07067 0.3433-0.09087 1.01-0.06058 2.08-0.06058 4.473 0 1.807 0.06058 4.362z"/>
           <path d="m-0.2539 94.52q0.03029 1.656 1.181 1.656h1.504q1.514 0 2.262-0.7067 0.7572-0.7168 1.111-2.009 0.2019-0.03029 0.4745 0.1111-0.1716 1.464-0.5351 3.301-1.908-0.101-2.463-0.101h-4.402q-0.313 0-1.252 0.04039-0.9289 0.05048-1.434 0.06058-0.09087-0.09087-0.09087-0.2322 0-0.1514 0.09087-0.2423 0.6159-0.03029 0.8986-0.07067 0.2827-0.05048 0.5149-0.2423 0.2322-0.2019 0.3029-0.5553 0.07067-0.3534 0.08077-1.01 0.06058-2.575 0.06058-4.382 0-1.868-0.06058-4.452-0.0101-0.4442-0.04038-0.7269-0.03029-0.2928-0.1313-0.5048-0.09087-0.212-0.2019-0.3231-0.101-0.1212-0.3332-0.1918-0.2322-0.07067-0.4543-0.09087-0.2221-0.02019-0.6361-0.04039-0.09087-0.09087-0.09087-0.2322 0-0.1514 0.09087-0.2423 0.4442 0.0101 1.272 0.06058 0.8279 0.04039 1.393 0.04039 0.5755 0 1.413-0.04039 0.8481-0.05048 1.272-0.06058 0.09087 0.09087 0.09087 0.2423 0.0101 0.1413-0.09087 0.2322-0.6159 0.03029-0.8986 0.08077-0.2726 0.04039-0.5048 0.2423-0.2322 0.2019-0.3029 0.5452-0.07067 0.3433-0.09087 1.01-0.06058 2.08-0.06058 4.473 0 0.424 0.06058 4.362z"/>
           <path d="m12.78 94.52q0.02019 1.222 0.3736 1.535 0.3534 0.3029 1.636 0.3433 0.08077 0.08077 0.08077 0.2322 0 0.1413-0.08077 0.2423-0.4139 0-1.333-0.05048-0.9188-0.05048-1.545-0.05048-0.6159 0-1.565 0.05048-0.9389 0.05048-1.333 0.05048-0.2322-0.2322 0-0.4745 1.282-0.04039 1.636-0.3433 0.3534-0.313 0.3736-1.535l0.06058-3.1q0-0.1918-0.0101-0.3332-0.0101-0.1413-0.03029-0.2322-0.02019-0.09087-0.07067-0.1918-0.05048-0.101-0.09087-0.1615-0.04039-0.07067-0.1313-0.212-0.09087-0.1413-0.1615-0.2625l-2.716-4.564q-0.5755-0.9793-1.09-1.292-0.5048-0.313-1.262-0.3635-0.2524-0.2524-0.02019-0.4745 0.1413 0 0.9894 0.05048 0.8582 0.05048 1.333 0.05048 0.4543 0 1.282-0.05048 0.8279-0.05048 1.151-0.05048 0.2322 0.2524 0 0.4745-0.9087 0.04039-1.1 0.2221-0.1817 0.1716 0.1514 0.8279l2.615 4.594q0.2726 0.4947 0.5149 0.04039l2.453-4.634q0.1615-0.313 0.1716-0.5149 0.02019-0.2019-0.1514-0.3029-0.1615-0.1111-0.3837-0.1615-0.212-0.05048-0.6058-0.07067-0.2322-0.2322 0-0.4543 0.4139 0 1.07 0.04039 0.6664 0.04039 0.9087 0.04039 0.2726 0 0.9793-0.04039 0.7168-0.04039 0.949-0.04039 0.2322 0.2322 0 0.4543-0.8178 0.08077-1.313 0.3231t-0.8986 0.9591l-2.635 4.776q-0.2625 0.4745-0.2625 1.373z"/>
          </g>
         </g>
         <g transform="matrix(.8281 0 0 1.208 57.16 53.92)" aria-label="DAILY">
          <g fill="#cce7f8">
           <path d="m-35.42 94.52q0.02019 0.5553 0.08077 0.8481 0.07067 0.2827 0.3029 0.5553 0.2423 0.2726 0.7269 0.3635 0.4846 0.09087 1.313 0.09087 1.161 0 2.11-0.2726 0.949-0.2827 1.757-0.8885 0.8077-0.6159 1.262-1.706 0.4543-1.1 0.4543-2.615 0-0.9894-0.2019-1.959-0.1918-0.9692-0.6563-1.898-0.4644-0.939-1.161-1.636-0.6865-0.7067-1.747-1.141-1.05-0.4341-2.332-0.4341-0.4745 0-0.7976 0.03029-0.3231 0.03029-0.5351 0.1817-0.2019 0.1413-0.313 0.2221-0.1111 0.08077-0.1716 0.3837-0.05048 0.3029-0.06058 0.4442-0.0101 0.1413-0.03029 0.5957-0.08077 3.473-0.08077 4.473 0 2.11 0.08077 4.362zm-0.9087-11.09q0.313 0 1.565-0.05048 1.252-0.05048 2.029-0.05048 2.958 0 5.068 2.09 2.11 2.08 2.11 4.977 0 1.464-0.4341 2.625-0.4341 1.161-1.121 1.868-0.6764 0.6966-1.595 1.161-0.9188 0.4644-1.827 0.6462-0.8986 0.1716-1.827 0.1716-1.242 0-2.484-0.05048-1.232-0.05048-1.444-0.05048-0.5755 0-1.413 0.05048t-1.272 0.05048q-0.08077-0.101-0.08077-0.2423 0-0.1514 0.08077-0.2322 1.141-0.04039 1.444-0.3332 0.313-0.3029 0.3332-1.545 0.08077-3.433 0.08077-4.382 0-1.01-0.08077-4.452-0.02019-1.242-0.3332-1.535-0.3029-0.3029-1.444-0.3433-0.08077-0.101-0.08077-0.2423 0-0.1514 0.08077-0.2322 0.4543 0 1.272 0.05048 0.8178 0.05048 1.373 0.05048z"/>
           <path d="m-20.02 91.03h3.695l-1.989-5.735h-0.06058l-2.171 5.351q-0.07067 0.1615 0.06058 0.2726 0.1413 0.1111 0.4644 0.1111zm-2.342 4.321q-0.06058 0.1615-0.07067 0.2928 0 0.1313 0.04038 0.2322 0.05048 0.09087 0.1212 0.1716 0.08077 0.08077 0.2019 0.1313 0.1313 0.05048 0.2524 0.09087t0.2827 0.07067q0.1716 0.02019 0.3029 0.04039 0.1313 0.0101 0.2928 0.02019 0.09087 0.09087 0.09087 0.2423 0.0101 0.1413-0.09087 0.2322-0.2928-0.0101-1.03-0.06058-0.7269-0.04039-1.201-0.04039-0.4442 0-1.09 0.04039-0.6361 0.05048-0.9591 0.06058-0.09087-0.09087-0.09087-0.2322 0-0.1514 0.09087-0.2423 0.7572-0.05048 1.222-0.3534 0.4745-0.3029 0.8481-1.171l4.796-11.3q0.3837 0 1.08-0.4139l4.321 12.03q0.1313 0.3837 0.313 0.626 0.1918 0.2322 0.4644 0.3534 0.2827 0.1111 0.4846 0.1514 0.212 0.04039 0.5957 0.07067 0.09087 0.09087 0.09087 0.2423 0 0.1413-0.09087 0.2322-0.2928-0.0101-0.7673-0.04039-0.4644-0.02019-0.9188-0.04039-0.4442-0.02019-0.8178-0.02019-0.4644 0-1.464 0.05048-0.9894 0.05048-1.242 0.05048-0.09087-0.09087-0.09087-0.2322 0-0.1514 0.09087-0.2423 0.07067 0 0.2019-0.0101 0.2221-0.0101 0.3231-0.02019 0.1111-0.0101 0.2928-0.03029 0.1817-0.03029 0.2726-0.05048 0.09087-0.03029 0.212-0.07067 0.1212-0.05048 0.1615-0.1111 0.05048-0.06058 0.09087-0.1413 0.05048-0.09087 0.04038-0.212-0.0101-0.1212-0.06058-0.2625l-1.313-3.806h-4.311q-0.3433 0-0.4947 0.1111-0.1413 0.1111-0.2322 0.3433z"/>
           <path d="m-7.008 94.52q0.02019 0.6664 0.08077 1.02 0.07067 0.3433 0.3029 0.5452 0.2322 0.1918 0.5149 0.2423 0.2827 0.05048 0.8986 0.07067 0.09087 0.09087 0.09087 0.2423 0.0101 0.1413-0.09087 0.2322-0.4442-0.0101-1.272-0.06058-0.8279-0.04039-1.393-0.04039-0.5755 0-1.424 0.04039-0.838 0.05048-1.262 0.06058-0.09087-0.09087-0.09087-0.2322 0-0.1514 0.09087-0.2423 0.6159-0.03029 0.8986-0.07067 0.2827-0.05048 0.5149-0.2423 0.2322-0.2019 0.3029-0.5553 0.07067-0.3534 0.08077-1.01 0.06058-2.575 0.06058-4.382 0-1.868-0.06058-4.452-0.0101-0.4442-0.04038-0.7269-0.03029-0.2928-0.1313-0.5048-0.09087-0.212-0.2019-0.3231-0.101-0.1212-0.3332-0.1918-0.2322-0.07067-0.4543-0.09087-0.2221-0.02019-0.6361-0.04039-0.09087-0.09087-0.09087-0.2322 0-0.1514 0.09087-0.2423 0.4442 0.0101 1.272 0.06058 0.8279 0.04039 1.393 0.04039 0.5755 0 1.413-0.04039 0.8481-0.05048 1.272-0.06058 0.09087 0.09087 0.09087 0.2423 0.0101 0.1413-0.09087 0.2322-0.6159 0.03029-0.8986 0.08077-0.2726 0.04039-0.5048 0.2423-0.2322 0.2019-0.3029 0.5452-0.07067 0.3433-0.09087 1.01-0.06058 2.08-0.06058 4.473 0 1.807 0.06058 4.362z"/>
           <path d="m-0.2539 94.52q0.03029 1.656 1.181 1.656h1.504q1.514 0 2.262-0.7067 0.7572-0.7168 1.111-2.009 0.2019-0.03029 0.4745 0.1111-0.1716 1.464-0.5351 3.301-1.908-0.101-2.463-0.101h-4.402q-0.313 0-1.252 0.04039-0.9289 0.05048-1.434 0.06058-0.09087-0.09087-0.09087-0.2322 0-0.1514 0.09087-0.2423 0.6159-0.03029 0.8986-0.07067 0.2827-0.05048 0.5149-0.2423 0.2322-0.2019 0.3029-0.5553 0.07067-0.3534 0.08077-1.01 0.06058-2.575 0.06058-4.382 0-1.868-0.06058-4.452-0.0101-0.4442-0.04038-0.7269-0.03029-0.2928-0.1313-0.5048-0.09087-0.212-0.2019-0.3231-0.101-0.1212-0.3332-0.1918-0.2322-0.07067-0.4543-0.09087-0.2221-0.02019-0.6361-0.04039-0.09087-0.09087-0.09087-0.2322 0-0.1514 0.09087-0.2423 0.4442 0.0101 1.272 0.06058 0.8279 0.04039 1.393 0.04039 0.5755 0 1.413-0.04039 0.8481-0.05048 1.272-0.06058 0.09087 0.09087 0.09087 0.2423 0.0101 0.1413-0.09087 0.2322-0.6159 0.03029-0.8986 0.08077-0.2726 0.04039-0.5048 0.2423-0.2322 0.2019-0.3029 0.5452-0.07067 0.3433-0.09087 1.01-0.06058 2.08-0.06058 4.473 0 0.424 0.06058 4.362z"/>
           <path d="m12.78 94.52q0.02019 1.222 0.3736 1.535 0.3534 0.3029 1.636 0.3433 0.08077 0.08077 0.08077 0.2322 0 0.1413-0.08077 0.2423-0.4139 0-1.333-0.05048-0.9188-0.05048-1.545-0.05048-0.6159 0-1.565 0.05048-0.9389 0.05048-1.333 0.05048-0.2322-0.2322 0-0.4745 1.282-0.04039 1.636-0.3433 0.3534-0.313 0.3736-1.535l0.06058-3.1q0-0.1918-0.0101-0.3332-0.0101-0.1413-0.03029-0.2322-0.02019-0.09087-0.07067-0.1918-0.05048-0.101-0.09087-0.1615-0.04039-0.07067-0.1313-0.212-0.09087-0.1413-0.1615-0.2625l-2.716-4.564q-0.5755-0.9793-1.09-1.292-0.5048-0.313-1.262-0.3635-0.2524-0.2524-0.02019-0.4745 0.1413 0 0.9894 0.05048 0.8582 0.05048 1.333 0.05048 0.4543 0 1.282-0.05048 0.8279-0.05048 1.151-0.05048 0.2322 0.2524 0 0.4745-0.9087 0.04039-1.1 0.2221-0.1817 0.1716 0.1514 0.8279l2.615 4.594q0.2726 0.4947 0.5149 0.04039l2.453-4.634q0.1615-0.313 0.1716-0.5149 0.02019-0.2019-0.1514-0.3029-0.1615-0.1111-0.3837-0.1615-0.212-0.05048-0.6058-0.07067-0.2322-0.2322 0-0.4543 0.4139 0 1.07 0.04039 0.6664 0.04039 0.9087 0.04039 0.2726 0 0.9793-0.04039 0.7168-0.04039 0.949-0.04039 0.2322 0.2322 0 0.4543-0.8178 0.08077-1.313 0.3231t-0.8986 0.9591l-2.635 4.776q-0.2625 0.4745-0.2625 1.373z"/>
          </g>
         </g>
        </g>
       </g>
      </g>
     </g>
    </g>
   </g>
  </g>
 </g>
</svg>
