<svg xmlns="http://www.w3.org/2000/svg" width="256" height="256"><path fill-opacity=".114" d="M0 128.004v128.004l128.25-.254 128.25-.254.254-127.75L257.008 0H0v128.004m.485.496c0 70.4.119 99.053.265 63.672.146-35.38.146-92.98 0-128C.604 29.153.485 58.1.485 128.5" fill="#1976D2" fill-rule="evenodd"/><path fill-opacity=".544" d="M47 1.501c-8.297 1.677-18.386 5.367-24.62 9.004C15.675 14.417 5.907 24.469 2.951 30.5L.5 35.5v185l2.438 5c3.209 6.582 14.059 17.21 21.568 21.127 6.993 3.648 16.546 6.837 24.928 8.322 3.786.671 32.255 1.051 78.662 1.051 78.108 0 79.925-.101 94.024-5.243 8.76-3.195 14.52-6.661 21.175-12.744 5.058-4.622 6.24-6.483 12.869-20.249.992-2.061 1.146-181.408.155-180.417-.374.375-1.328-1.235-2.12-3.578-5.215-15.427-22.976-27.91-46.037-32.355C197.869-.57 56.872-.493 47 1.501M.479 128c0 49.775.122 70.138.271 45.25.149-24.887.149-65.612 0-90.5C.601 57.863.479 78.225.479 128M16 46.972c0 1.415 1.421 2.584 5.027 4.135 7.618 3.277 17.696 14.571 22.387 25.089 2.037 4.567 13.928 31.704 26.424 60.304 22.329 51.107 22.771 52.005 25.701 52.296 2.886.286 3.176-.096 8.972-11.836 10.572-21.412 27.122-52.338 28.203-52.698.576-.192 7.273 14.295 14.882 32.194C160.85 187.633 161.543 189 164.109 189c1.472 0 2.906-.562 3.186-1.25 5.175-12.703 53.611-123.627 55.505-127.114 3.032-5.582 8.039-9.411 13.45-10.285 3.109-.503 3.75-1.012 3.75-2.979V45h-44v2.369c0 1.938.644 2.474 3.541 2.944 4.525.734 9.722 3.941 11.366 7.014 1.172 2.189-.369 6.209-17.927 46.784-10.564 24.414-20.225 46.395-21.468 48.847l-2.259 4.458-2.056-4.029c-1.13-2.216-6.593-14.256-12.139-26.756l-10.083-22.726 10.187-21.203c5.602-11.661 10.805-22.168 11.56-23.349 2.114-3.305 8.852-7.555 14.07-8.874 3.576-.904 4.785-1.705 5.028-3.334.318-2.137.237-2.145-21.25-2.145H143v2.373c0 2.117.54 2.424 5.01 2.854 5.715.549 8.99 2.93 8.99 6.536 0 1.349-2.978 8.769-6.619 16.489-7.976 16.915-10.392 21.137-11.474 20.055-.451-.451-4.474-8.863-8.939-18.694-5.529-12.17-7.94-18.589-7.556-20.116.537-2.14 3.767-4.018 8.088-4.701 1.182-.187 2.131-1.233 2.32-2.556l.319-2.24H83v2.361c0 2.159.515 2.408 5.994 2.905 11.813 1.071 11.335.409 28.948 39.998l10.129 22.764-12.765 23.986C108.286 150.206 102.189 161 101.758 161c-.945 0-1.01-.145-25.349-56.213C65.734 80.194 57 59.46 57 58.711c0-2.337 4.705-5.919 10.216-7.777 3.84-1.295 5.371-2.349 5.604-3.858.317-2.06.103-2.076-28.25-2.076C16.801 45 16 45.055 16 46.972m22.972 154.141c1.359.543 2.815 1.527 3.234 2.187.42.66.77 9.323.779 19.25.016 18.673-.348 20.45-4.185 20.45-.99 0-1.8.344-1.8.764 0 .42 6.412.731 14.25.69 14.783-.077 19.492-1.103 24.07-5.242 5.986-5.414 7.856-18.026 3.839-25.899-2.593-5.084-9.363-10.997-14.094-12.311-4.861-1.351-29.493-1.245-26.093.111m65.553 2.067c-.83 1.826-4.65 10.695-8.488 19.71C89.074 239.241 86.888 243 84.345 243c-.74 0-1.344.338-1.344.75.001.412 3.151.752 7 .755 6.675.005 9.522-1.006 4.749-1.686-2.911-.415-2.748-4.244.456-10.698L97.5 227.5l7.094-.291c8.039-.329 8.31-.147 10.764 7.219 2.332 7 2.164 8.572-.917 8.572-1.407 0-2.351.338-2.096.75.548.886 16.476.763 17.373-.134.338-.339-.305-.616-1.429-.616s-2.618-.692-3.32-1.537c-.702-.846-4.474-10.403-8.383-21.239-7.66-21.233-9.18-23.382-12.061-17.044m29.125-1.731c3.138 1.365 3.153 1.407 3.877 11.073.4 5.337.333 14.263-.15 19.836l-.877 10.133-3 .636c-1.65.35-2.775.727-2.5.838 1.513.612 18 .415 18-.215 0-.412-.884-.75-1.965-.75-1.08 0-2.43-.87-3-1.934-1.195-2.233-1.41-35.927-.241-37.766.419-.66 1.875-1.644 3.234-2.187 1.891-.754.24-.992-7.028-1.01-8.901-.023-9.301.062-6.35 1.346m22.322-.336c1.359.543 2.815 1.527 3.234 2.187 1.169 1.839.954 35.533-.241 37.766-.57 1.064-1.92 1.934-3 1.934-1.081 0-1.965.338-1.965.75-.001.412 7.082.678 15.738.591l15.739-.159.792-3.813c1.254-6.035.476-7.296-1.957-3.174-2.177 3.69-6.56 5.786-12.128 5.799-5.235.013-5.892-1.212-6.656-12.422-.393-5.767-.391-14.377.005-19.131.705-8.459.787-8.673 3.844-10.003 2.913-1.268 2.485-1.358-6.377-1.335-7.268.018-8.919.256-7.028 1.01m31.655.801c1.951 1.19 5.427 5.716 9.25 12.043L203 224.093v8.254c0 8.516-.842 10.653-4.2 10.653-.99 0-1.8.338-1.8.75s4.05.75 9 .75 9-.338 9-.75-.81-.75-1.8-.75c-3.425 0-4.2-2.113-4.197-11.45.004-9.041.009-9.06 5.25-18.549 4.126-7.47 5.995-9.863 8.747-11.202l3.5-1.703-6.861-.048c-6.665-.047-6.801.002-4.761 1.702l2.1 1.75-4.548 8.25c-2.501 4.537-4.956 8.25-5.455 8.25-1.075 0-9.931-14.925-9.957-16.782-.01-.705.994-1.689 2.232-2.187 1.617-.65-.143-.921-6.25-.964l-8.5-.06 3.127 1.907m-136.931.284c-1.621 1.217-1.805 3.198-1.824 19.636-.014 12.749.342 18.719 1.176 19.724 1.957 2.358 11.823 1.873 16.939-.833 5.931-3.136 8.013-7.362 8.013-16.263 0-9.382-3.306-16.385-9.428-19.972-5.265-3.086-12.362-4.18-14.876-2.292m51.359 12.325c-1.747 4.195-3.421 8.268-3.722 9.052-.442 1.151.82 1.425 6.56 1.425 3.909 0 7.107-.194 7.107-.432 0-.644-6.062-16.963-6.443-17.344-.18-.18-1.756 3.105-3.502 7.299" fill="#1976D2" fill-rule="evenodd"/><path fill-opacity=".476" d="M51.5 1.085C29.401 4.36 10.608 15.891 3.392 30.604L.5 36.5v183l2.892 5.896c6.087 12.411 20.438 22.632 39.108 27.853 7.968 2.228 8.311 2.237 85.5 2.237s77.532-.009 85.5-2.237c12.31-3.443 23.414-9.351 30.282-16.113 5.819-5.73 11.218-14.881 11.218-19.015 0-1.102.45-2.281 1-2.621.654-.404 1-31.03 1-88.618 0-50.039-.377-87.767-.875-87.459-.481.297-1.153-1.194-1.492-3.315-.843-5.275-7.846-15.435-14.025-20.347-6.457-5.134-16.824-10.092-27.108-12.963-7.919-2.211-8.753-2.236-82-2.418-40.7-.101-76.7.217-80 .705M.479 128c0 48.675.122 68.588.271 44.25.149-24.337.149-64.162 0-88.5C.601 59.413.479 79.325.479 128m15.024-82.009c-.845 2.661-.023 3.765 4.076 5.478 4.168 1.741 13.564 10.443 17.602 16.303 1.62 2.349 6.695 12.924 11.279 23.5 21.207 48.927 37.897 86.77 40.786 92.478 2.852 5.634 3.468 6.25 6.251 6.25 3.682 0 5.234-2.445 19.352-30.5 10.343-20.554 15.86-29.761 17.508-29.221 2.286.75 5.436 6.859 14.095 27.339C158.741 186.679 160.554 190 164.125 190c3.765 0 3.874-.224 32.421-66.597 12.806-29.772 24.407-56.33 25.782-59.017 3.294-6.439 9.159-11.912 14.422-13.456 3.385-.993 4.25-1.708 4.25-3.516 0-1.992-.643-2.347-5.25-2.896-2.887-.344-13.125-.489-22.75-.322l-17.5.304-.311 2.695c-.278 2.41.138 2.816 3.939 3.84 5.839 1.572 11.309 7.086 10.446 10.528-1.093 4.354-35.377 82.696-37.34 85.325-1.021 1.367-2.293 2.632-2.827 2.81-.534.178-2.38-2.044-4.101-4.937-4.56-7.665-17.582-37.828-17.613-40.797-.014-1.395 4.135-11.35 9.222-22.122 11.163-23.642 15.677-28.898 26.893-31.314 2.851-.614 3.265-1.079 3-3.37L186.5 44.5l-19-.293c-22.943-.355-25.5-.024-25.5 3.293 0 1.997.642 2.526 3.75 3.088 2.063.374 5.042 1.334 6.62 2.133 2.615 1.325 2.828 1.825 2.393 5.617-.544 4.746-9.492 24-12.762 27.463-1.667 1.765-2.488 2.04-3.523 1.181-1.493-1.24-10.172-18.795-12.958-26.212-1.621-4.317-1.64-4.938-.216-7.111.858-1.31 2.952-2.66 4.652-3 3.811-.762 5.076-3.431 2.515-5.304-1.436-1.05-7.195-1.355-25.595-1.355-23.242 0-23.755.044-24.408 2.101-.911 2.87.203 3.701 6.567 4.894 6.108 1.145 9.463 3.218 12.557 7.76 2.002 2.939 22.532 48.479 23.83 52.857 1.063 3.59-19.511 42.016-23.096 43.137-.646.202-2.378-1.688-3.85-4.2-3.057-5.215-37.992-85.618-39.017-89.797-.551-2.242-.12-3.267 2.339-5.564 1.658-1.548 4.838-3.362 7.066-4.029 4.642-1.391 5.521-2.371 4.633-5.168C72.886 44.065 71.944 44 44.5 44s-28.386.065-28.997 1.991m21.104 153.835c-.355.575.6 1.643 2.123 2.373l2.77 1.326.272 18.749.272 18.749-2.522 1.149c-1.387.632-2.522 1.527-2.522 1.989 0 .461 6.412.835 14.25.829 12.857-.009 14.739-.239 19.25-2.358 2.75-1.292 5.77-3.216 6.712-4.277 4.701-5.295 6.257-16.897 3.237-24.137-1.97-4.724-6.819-9.797-11.949-12.503-3.35-1.766-6.215-2.176-17.623-2.522-8.841-.268-13.85-.046-14.27.633m69.515.078c-.758.48-5.063 9.585-9.567 20.234-6.908 16.337-8.679 19.674-11.333 21.362-1.73 1.1-3.162 2.338-3.183 2.75-.022.412 3.336.75 7.461.75 7.256 0 9.725-1.159 5.395-2.533-2.436-.773-2.196-3.732.822-10.154l1.791-3.813 7.279-.294 7.278-.295 1.562 3.738c.859 2.056 1.795 5.179 2.081 6.941.427 2.631.142 3.323-1.594 3.874C109.516 243.923 112.44 245 121 245c4.95 0 8.997-.338 8.994-.75-.004-.412-1.241-1.465-2.75-2.338-2.343-1.356-3.819-4.604-10.106-22.25-4.049-11.364-7.874-20.655-8.5-20.647-.626.009-1.758.408-2.516.889m25.545-.237c-1.25 1.249-.67 2.193 1.542 2.513 3.076.445 3.576 3.08 3.691 19.445.123 17.328-.33 20.015-3.509 20.813-5.357 1.345-1.979 2.562 7.109 2.562 9.853 0 11.65-.75 6.478-2.702l-3.023-1.141.273-18.816.272-18.816 2.77-1.326c1.523-.73 2.509-1.748 2.19-2.263-.652-1.056-16.762-1.3-17.793-.269m21.896.231c-.331.536.644 1.571 2.167 2.301l2.77 1.326.272 18.816.273 18.816-3.023 1.141c-1.662.627-3.022 1.492-3.022 1.921 0 .43 7.416.781 16.481.781 16.27 0 16.488-.029 17.003-2.25 1.822-7.851.215-12.486-2.333-6.729-1.793 4.05-6.134 6.157-11.913 5.782-5.906-.384-6.039-.818-6.039-19.803 0-16.767.479-19.37 3.65-19.827 1.246-.18 2.092-.855 1.878-1.5-.485-1.466-17.294-2.183-18.164-.775m30.961.063c-.354.574.395 1.44 1.666 1.926 3.065 1.172 4.545 3.013 10.655 13.252 5.149 8.629 5.155 8.648 5.155 17.337v8.698l-3 1.132c-1.65.623-3 1.484-3 1.913 0 .43 4.5.781 10 .781s10-.351 10-.781c0-.429-1.35-1.29-3-1.913l-3-1.132.029-9.837.029-9.837 4.802-8.5c3.461-6.127 5.68-8.919 7.947-10 4.683-2.233 3.304-3.5-3.807-3.5-6.302 0-9.263 1.675-4.953 2.802 2.059.539 1.993.816-2.071 8.627-2.309 4.439-4.518 8.071-4.909 8.071-.911 0-9.067-14.215-9.067-15.803 0-.658.713-1.197 1.583-1.197.871 0 1.398-.562 1.17-1.25-.525-1.588-15.291-2.306-16.229-.789M50.219 203.75c-.396.963-.719 9.49-.719 18.95 0 12.793.334 17.533 1.302 18.5 2.005 2.002 11.176 1.526 15.685-.814 11.677-6.06 10.124-29.449-2.394-36.059-5.462-2.884-12.802-3.189-13.874-.577M102.696 215c-4.153 8.959-4.05 9.5 1.804 9.5 4.935 0 4.998-.039 4.874-3.052-.069-1.679-1.027-5.054-2.128-7.5l-2.001-4.448-2.549 5.5" fill="#1976D2" fill-rule="evenodd"/><path fill-opacity=".352" d="M53 1.158c-9.587 1.225-23.803 5.97-31.016 10.352-7.472 4.539-15.467 13.15-18.788 20.237L.5 37.5v181l2.696 5.753c3.321 7.087 11.316 15.698 18.788 20.237 7.635 4.638 21.628 9.126 32.516 10.428 12.123 1.45 134.877 1.45 147 0 10.888-1.302 24.881-5.79 32.516-10.428 10.634-6.459 20.947-20.07 20.974-27.681.006-1.48.46-2.969 1.01-3.309.654-.404 1-30.363 1-86.618 0-57.079-.336-85.792-1-85.382-.575.356-1.004-.575-1.01-2.191-.016-4.54-4.527-12.939-10.134-18.868C236.885 12.013 226.211 6.306 211 2.34 205.223.834 196.486.621 132.5.422 90.968.293 57.326.605 53 1.158M19 41.69c-3.621.713-6 3.222-6 6.326 0 2.183 1.404 3.782 7.25 8.26 6.926 5.306 10.024 8.632 14.088 15.125 1.011 1.615 12.195 26.598 24.854 55.517 12.659 28.92 23.696 53.932 24.526 55.582 3.493 6.939 9.784 10.745 15.016 9.084 4.316-1.37 8.708-7.681 17.964-25.818 5.33-10.445 10.536-20.065 11.569-21.378 2.038-2.592 4.646-3.075 6.514-1.207.649.649 5.075 10.326 9.834 21.505 7.205 16.92 9.303 20.91 12.523 23.819 5.457 4.931 8.892 4.749 14.303-.755 3.652-3.716 6.672-10.034 24.017-50.25 35.869-83.167 32.87-77.293 42.68-83.588 5.428-3.484 6.131-4.735 4.503-8.019-1.754-3.538-7.939-4.72-25.181-4.813-10.304-.055-16.833.387-20.734 1.403-5.092 1.326-6.349 1.316-11.866-.098-8.78-2.249-37.737-1.63-42.925.917-3.401 1.67-3.747 1.668-7.5-.026-3.403-1.536-7.044-1.776-26.935-1.776-20.145 0-23.403.22-26.25 1.776-3.113 1.701-3.387 1.701-6.5 0-2.844-1.554-6.373-1.795-28.25-1.927-13.75-.083-26.125.071-27.5.341M.478 128c0 47.575.122 67.038.272 43.25.149-23.787.149-62.712 0-86.5C.6 60.963.478 80.425.478 128m71.968-74.914c-5.73 3.575-7.44 5.489-7.462 8.355-.019 2.42 31.462 75.774 34.251 79.809 2.479 3.586 4.126 3.47 7.088-.5 4.545-6.091 13.677-24.789 13.677-28.004 0-3.012-17.733-44.522-22.027-51.56-1.442-2.364-3.949-4.176-8.747-6.323-3.699-1.655-7.507-3.426-8.462-3.936-2.506-1.337-2.864-1.244-8.318 2.159m61.089.018c-2.088 1.833-3.535 4.028-3.535 5.363 0 1.243 1.688 5.584 3.75 9.646 3.154 6.213 4.147 7.387 6.25 7.387 2.031 0 3.105-1.126 5.722-6 3.548-6.607 4.135-11.501 1.674-13.961-1.486-1.486-8.672-5.539-9.821-5.539-.278 0-2.096 1.397-4.04 3.104m48.73 1.461c-3.429 1.944-7.649 5.218-9.377 7.277-4.509 5.37-19.837 37.834-19.865 42.072-.026 3.923 11.12 30 13.897 32.514 2.078 1.88 4.1 1.37 5.883-1.484C175.59 130.481 204 63.706 204 61.618c0-3.702-8.969-10.643-13.7-10.603-.99.009-4.606 1.606-8.035 3.55M39.25 198.099c-3.72 1.097-3.939 1.921-1.5 5.64 3.429 5.228 2.748 38.261-.789 38.261-1.847 0-.942 2.94 1.27 4.124 3.151 1.686 23.911 1.248 30.452-.643 9.99-2.887 15.615-10.408 15.694-20.981.024-3.3-.564-7.775-1.308-9.944-1.851-5.4-9.297-13.12-14.412-14.943-5.077-1.81-24.934-2.832-29.407-1.514m94 .148c-2.893.928-4.66 3.753-2.348 3.753 2.037 0 3.098 7.098 3.098 20.715 0 14.371-.752 18.285-3.512 18.285-2.333 0-4.376-4.064-10.428-20.745-7.667-21.129-8.28-22.208-12.655-22.24-2.848-.021-5.125 2.736-7.536 9.123-4.317 11.434-11.403 26.575-14.562 31.114-1.819 2.614-3.307 5.374-3.307 6.134 0 2.733 11.177 3.668 14.532 1.215 1.689-1.236 1.758-1.691.586-3.881-2.596-4.851 1.833-11.72 7.556-11.72 5.806 0 9.838 6.385 7.405 11.726-1.938 4.254-.337 4.751 16.22 5.034 22.191.379 24.059-.23 19.951-6.503-1.477-2.256-1.75-5.098-1.75-18.215 0-13.193.264-15.916 1.75-18.015 2.572-3.634 2.177-4.814-2-5.974-4.538-1.261-8.657-1.199-13 .194m22.5-.085c-3.199 1.169-3.418 2.45-1 5.865 1.486 2.099 1.75 4.822 1.75 18.015 0 13.117-.273 15.959-1.75 18.215-4.022 6.142-1.855 7 17.25 6.834 12.409-.108 13.641-.287 15.25-2.215 1.736-2.08 2.31-7.253 1.143-10.294-.914-2.382-3.248-1.916-7.029 1.404-4.501 3.951-7.885 4.757-10.404 2.478-1.771-1.603-1.96-3.141-1.96-15.97 0-13.42 1.069-20.494 3.098-20.494.496 0 .902-.631.902-1.402 0-3.056-11.215-4.64-17.25-2.436m31 0c-3.461 1.264-3.443 2.172.127 6.694 1.583 2.004 5.07 7.244 7.75 11.644 4.634 7.607 4.873 8.352 4.873 15.169 0 6.222-.322 7.513-2.437 9.764-1.588 1.69-2.096 2.934-1.459 3.571 1.734 1.734 10.198 2.775 15.105 1.858 6.297-1.176 7.204-2.262 4.391-5.255-2.832-3.015-3.901-12.37-2.19-19.164 1.307-5.191 6.146-13.226 10.95-18.184 1.727-1.782 3.14-3.64 3.14-4.128 0-1.642-7.887-3.001-11.549-1.99-3.204.885-3.451 1.24-3.451 4.972 0 5.994-2.691 10.327-5.696 9.173-2.101-.806-4.624-6.394-4.49-9.946.101-2.692-.349-3.331-2.997-4.254-3.761-1.311-8.348-1.282-12.067.076m-133.775 8.403c-.536 1.411-.975 8.736-.975 16.278 0 16.504.873 18.706 7.089 17.872 11.554-1.55 16.468-15.732 9.701-27.99-4.367-7.91-13.759-11.568-15.815-6.16" fill="#1976D2" fill-rule="evenodd"/></svg>